<?xml version="1.0" encoding="utf-8"?>
<!-- Generator: Adobe Illustrator 23.0.4, SVG Export Plug-In . SVG Version: 6.00 Build 0)  -->
<svg version="1.1" id="Layer_1" xmlns="http://www.w3.org/2000/svg" xmlns:xlink="http://www.w3.org/1999/xlink" x="0px" y="0px"
	 viewBox="0 0 713 274" style="enable-background:new 0 0 713 274;" xml:space="preserve">
<style type="text/css">
	.st0{fill:#00205B;}
	.st1{fill:#FFFFFF;}
</style>
<path class="st0" d="M224.5,124.7c0,64.5-39.7,119.6-96,142.4c-7.6,3.1-16.2,3.1-23.9,0c-56.3-22.8-96-77.9-96-142.4V31.9
	c0-4,2.6-7.5,6.4-8.6c26.2-7.7,53.6-12.5,81.8-14c6.5-0.3,13.1-0.5,19.7-0.5c35.3,0,69.3,5.1,101.6,14.6c3.8,1.1,6.4,4.7,6.4,8.6
	V124.7L224.5,124.7z"/>
<path class="st1" d="M114.5,189.2c-2,0-3.6,1.6-3.6,3.6c0,0.5,0.1,1,0.3,1.6l2.8,5.9c0.2,0.3,0.6,0.3,0.8,0l2.8-5.9
	c0.3-0.5,0.3-1,0.3-1.6C118.1,190.8,116.4,189.2,114.5,189.2"/>
<path class="st1" d="M99.9,202.1c0-1.3-0.6-2.4-1.7-3c-0.1-0.1-0.3-0.2-0.3-0.2c-0.4-0.3-1,0-1,0.5c-0.1,1-0.2,2.2-0.2,3.2
	c0,5.1,1.4,10.1,4.1,14.4c0.7,1.1,1.6,2.3,2.4,3.3c0.2,0.2,0.4,0.3,0.6,0.2c0.3-0.1,0.3-0.4,0.3-0.7c-2.7-5-4.1-10.7-4.1-16.5v-1.2
	H99.9z"/>
<path class="st1" d="M109.6,242.5L109.6,242.5C109.7,242.5,109.6,242.5,109.6,242.5"/>
<path class="st1" d="M116.9,237.4c0.3-0.6,0.7-1.1,1-1.7c0.3-0.7,0.2-1.6-0.5-1.9l-0.8-0.5c-0.3-0.2-0.5-0.1-0.6,0.2
	c-0.7,1.7-1.5,3.2-2.4,4.7c-0.8,1.3-2.3,2.1-3.8,2.1h-1.3c-0.8,0-1.4,0.4-1.7,1.1l-0.2,0.5c-0.1,0.3,0.1,0.6,0.4,0.6h0.8
	c0.2,0,0.3-0.1,0.4-0.3c0.3-0.8,1.2-1.2,2-0.9c0.2,0.1,0.2,0.3,0.2,0.3l-0.1,0.3c-0.1,0.3,0.1,0.6,0.4,0.6h2.3
	c0.2,0,0.3-0.1,0.4-0.3l0.3-0.6l0.3-0.8c0.3-0.8,0.9-1.4,1.6-1.8C116.1,238.6,116.6,238,116.9,237.4"/>
<path class="st1" d="M118.5,242.5"/>
<path class="st1" d="M125.7,232.7c-0.3-0.2-0.5-0.1-0.6,0.2c-0.8,1.8-1.7,3.6-2.7,5.2c-0.9,1.3-2.3,2.1-3.8,2.1h-1.3
	c-0.8,0-1.4,0.4-1.7,1.1l-0.2,0.5c-0.1,0.3,0.1,0.6,0.4,0.6h0.7c0.2,0,0.3-0.1,0.4-0.3c0.3-0.8,1.2-1.2,2-0.9
	c0.2,0.1,0.2,0.3,0.2,0.3l-0.1,0.3c-0.1,0.3,0.1,0.6,0.4,0.6h2.7c0.1,0,0.2,0,0.3-0.1c0.2-0.1,0.4-0.2,0.7-0.3l0.4-0.3
	c0.3-0.2,0.7-0.2,1,0.1c0.3,0.2,0.5,0.3,0.8,0.4c0.3,0.1,0.6,0.2,0.9,0.2h0.6c0.1,0,0.1,0,0.2-0.1c0,0,0.1-0.1,0-0.2l-0.3-1.1
	c-0.2-0.5-0.6-0.9-1.1-0.9h-1c-0.3,0-0.5-0.4-0.3-0.7l0.5-0.8c0.6-0.8,1.1-1.6,1.7-2.6c0.2-0.3,0.4-0.7,0.6-1
	c0.3-0.7,0.1-1.5-0.5-1.9C126.3,233.1,126,232.9,125.7,232.7"/>
<path class="st1" d="M127.9,182.2c0,0.1,0,0.2,0.1,0.2c0.6,0.5,1,1.1,1.4,1.8c0.3,0.7,1,1.3,1.9,1.5c1.5,0.3,2.8,1,3.8,1.9
	c0.1,0,0.1,0.1,0.2,0.1c0.2,0,0.3-0.1,0.3-0.3v-0.1c0-2.3-0.7-4.6-2-6.5c-0.3-0.3-0.6-0.5-1-0.6h-0.3c-1.5,0-3,0.6-4.3,1.7
	C128,182,127.9,182.1,127.9,182.2"/>
<path class="st1" d="M130.3,187.7c-0.2,0-0.3,0.1-0.3,0.3c-0.1,1-0.3,1.9-0.9,2.8c-0.3,0.7-0.4,1.5-0.2,2.1c0.5,1.4,0.7,2.7,0.6,4.1
	c0,0.1,0,0.2,0.1,0.2c0.1,0.1,0.1,0.1,0.2,0.1h0.2c1.8-1.1,3.3-2.7,4.3-4.6c0.3-0.5,0.3-1.2,0.3-1.8c-0.1-0.6-0.4-1.1-1-1.6
	C132.8,188.5,131.7,188,130.3,187.7C130.4,187.7,130.4,187.7,130.3,187.7"/>
<path class="st1" d="M119.7,181.4h0.2c1-0.6,2.2-0.9,3.4-0.9c0.5,0,1,0.1,1.4,0.2c0.2,0,0.3,0.1,0.5,0.1c0.6,0,1.1-0.2,1.6-0.5
	c1.1-0.9,2.3-1.6,3.6-1.8c0.1,0,0.2-0.1,0.2-0.2s0-0.2-0.1-0.3c-1-0.7-2.1-1.2-3.3-1.6c-0.4-0.1-0.9-0.2-1.3-0.2s-0.8,0-1.3,0.1
	c-1.1,0.2-2.2,0.8-3,1.6c-0.9,0.9-1.6,1.9-2.2,3.2c-0.1,0.1,0,0.2,0,0.3L119.7,181.4L119.7,181.4z"/>
<path class="st1" d="M111,179.2c0.6,1.1,1,2.3,1.3,3.7c0.3,1.3,0.3,2.8,0.3,4.2c0,0.1,0,0.2,0.1,0.2c0.1,0.1,0.1,0.1,0.2,0.1h0.1
	c0.5-0.2,1-0.2,1.5-0.2s1,0.1,1.5,0.2h0.1c0.1,0,0.2,0,0.2-0.1c0.1-0.1,0.1-0.1,0.1-0.2c-0.1-1.4,0-2.9,0.3-4.2s0.7-2.6,1.3-3.7
	c0.3-0.5,0.6-1,1-1.6c0.1-0.1,0.1-0.3,0-0.3c-0.1-0.1-0.2-0.2-0.3-0.2h-0.2c-1.2,0.7-2.3,1.6-3.2,2.6c-0.2,0.3-0.5,0.3-0.9,0.3
	c-0.3,0-0.6-0.2-0.9-0.3c-1-1-2-2-3.2-2.6H110c-0.1,0-0.2,0.1-0.3,0.2c0,0.1-0.1,0.2,0,0.3C110.4,178.1,110.8,178.6,111,179.2"/>
<path class="st1" d="M102.2,180.2c0.4,0.3,1,0.5,1.6,0.5c0.2,0,0.3,0,0.5-0.1c0.4-0.1,1-0.2,1.4-0.2c1.2,0,2.3,0.3,3.4,0.9h0.2
	c0.1,0,0.2-0.1,0.3-0.1c0,0,0.1-0.2,0-0.3c-0.5-1.3-1.2-2.3-2.2-3.2c-0.9-0.9-1.9-1.4-3-1.6c-0.4-0.1-0.9-0.1-1.3-0.1
	s-0.9,0.1-1.3,0.2c-1.1,0.3-2.3,0.9-3.3,1.6c-0.1,0.1-0.2,0.2-0.1,0.3c0,0.1,0.1,0.2,0.2,0.2C99.8,178.6,101,179.2,102.2,180.2"/>
<path class="st1" d="M99.7,184.3c0.3-0.7,0.8-1.3,1.4-1.8c0.1-0.1,0.1-0.1,0.1-0.2c0-0.1,0-0.2-0.1-0.2c-1.3-1.1-2.8-1.7-4.3-1.7
	h-0.3c-0.4,0-0.8,0.3-1,0.6c-1.3,1.9-2,4.2-2,6.5v0.1c0,0.2,0.2,0.3,0.3,0.3c0.1,0,0.1,0,0.2-0.1c1-0.9,2.3-1.6,3.8-1.9
	C98.5,185.5,99.2,185,99.7,184.3"/>
<path class="st1" d="M99,197.2c0.1,0,0.2,0,0.2-0.1c0,0,0.1-0.1,0.1-0.2c-0.1-1.3,0.1-2.7,0.6-4.1c0.3-0.7,0.2-1.5-0.2-2.1
	c-0.5-0.9-0.8-1.7-0.9-2.8c0-0.2-0.1-0.3-0.3-0.3h-0.1c-1.3,0.3-2.3,0.8-3.2,1.5c-0.4,0.3-0.8,1-0.9,1.5c-0.1,0.6-0.1,1.2,0.3,1.7
	c1,1.9,2.4,3.6,4.3,4.6C99,197.2,99,197.2,99,197.2"/>
<path class="st1" d="M128.2,226.4L128.2,226.4c-2.7-3.1-4.9-6.7-6.3-10.6c-1.5-4-2.3-8.3-2.3-12.5c0-0.7,0-1.4,0.1-2
	c0-0.1,0-0.1-0.1-0.2c0,0-0.1-0.1-0.2-0.1c-0.3,0-0.6-0.3-0.6-0.6c0-0.9,0.7-1.6,1.6-1.6h3.6c0.6,0,1.1,0,1.7-0.1
	c1-0.2,1.7-0.9,1.7-1.8c0.1-1.1-0.1-2.3-0.5-3.4c0-0.1-0.2-0.2-0.3-0.2h-0.1c-1,0.6-2.2,0.9-3.3,0.9c-1,0-2-0.3-3-0.7h-0.1
	c-0.1,0-0.3,0.1-0.3,0.2c-0.1,0.5-0.3,1-0.4,1.5l-3.3,6.9c-0.3,0.7-1,1.1-1.7,1.1s-1.4-0.4-1.7-1.1l-3.3-6.9c-0.3-0.4-0.3-1-0.4-1.5
	c0-0.2-0.2-0.2-0.3-0.2h-0.1c-1,0.4-1.9,0.7-3,0.7s-2.3-0.3-3.3-0.9h-0.1c-0.1,0-0.2,0.1-0.3,0.2c-0.4,1.2-0.6,2.3-0.5,3.4
	c0.1,1,0.8,1.6,1.7,1.8c0.5,0.1,1.1,0.1,1.7,0.1h3.6c0.9,0,1.6,0.7,1.6,1.6c0,0.3-0.3,0.6-0.6,0.6H105c-0.7,0-1.5-0.1-2.2-0.2h-0.1
	c-0.3,0-0.7,0.3-0.7,0.7c0,0.6-0.1,1.2-0.1,1.7c0,6.3,1.7,12.4,5.1,17.7c1.5,2.3,3.3,4.5,5.3,6.4s4.3,3.6,6.8,5h0.1
	c0.1,0,0.2-0.1,0.3-0.2c0.1-0.3,0.2-0.4,0.3-0.7c0.3-0.7,0.3-1.5,0.2-2.3c-0.2-0.8-0.5-1.5-1-2.1c-1.6-1.7-3-3.6-4.2-5.5
	c-0.1-0.2-0.1-0.3-0.1-0.5s0.2-0.3,0.3-0.4c0.3-0.2,0.5-0.2,0.8-0.2c0.5,0,1,0.3,1.3,0.7c1.6,2.4,3.4,4.6,5.6,6.5
	c0.9,0.8,1.8,1.6,2.9,2.3c0.8,0.6,1.7,1.2,2.6,1.7h0.2c0.1,0,0.2-0.1,0.3-0.2c0.2-0.4,0.3-0.8,0.4-1.2c0.3-0.7,0.3-1.5,0.2-2.2
	C128.9,227.6,128.6,226.9,128.2,226.4"/>
<path class="st1" d="M131.8,230c-0.1-0.1-0.1-0.1-0.2-0.1s-0.2,0.1-0.3,0.2c-0.5,1.7-1.1,3.3-1.9,4.9v0.2c0,0.1,0.1,0.1,0.2,0.2
	c2.3,1,4.5,1.9,6.8,2.6h0.2c0.2,0,0.3-0.1,0.4-0.3c0.3-0.5,0.7-1,1-1.7c0.1-0.3,0.3-0.4,0.3-0.7c0.2-0.4,0.1-0.9-0.3-1.1
	C135.8,233.1,133.7,231.7,131.8,230"/>
<path class="st1" d="M144.3,230.4c-1.7-0.6-3.2-1.4-4.7-2.3c-2.5-1.6-4.8-3.5-6.8-5.7c-2.5-2.9-4.3-6.2-5.6-9.8
	c-0.1-0.2,0-0.3,0-0.4c0.1-0.2,0.2-0.3,0.3-0.3c0.2-0.1,0.3-0.1,0.5-0.1c0.7,0,1.3,0.4,1.5,1c1.1,3,2.8,5.7,4.9,8.2
	c1.8,2.1,3.9,3.9,6.3,5.3c1.7,1,3.6,1.9,5.5,2.6h0.1c0.1,0,0.2,0,0.2-0.1c0.1-0.1,0.1-0.2,0.1-0.2c-0.1-0.5-0.2-1-0.3-1.5
	c-0.3-1.7-1.2-3-2.7-3.8c-2.3-1.3-4.3-3-6-5c-2.3-2.8-4.1-6.1-5-9.6c0-0.2,0-0.3,0.1-0.4c0.1-0.2,0.3-0.3,0.3-0.3h0.3
	c0.7,0,1.4,0.5,1.6,1.1c0.4,1.4,1,2.8,1.7,4.2c0.7,1.3,1.6,2.5,2.5,3.6c1.6,1.8,3.5,3.4,5.6,4.6h0.2c0.1,0,0.2,0,0.2-0.1
	c0.1-0.1,0.1-0.2,0.1-0.3c-0.9-4.4-1.8-8.3-3.1-11.9c-0.8-2.3-1.9-4.4-3.3-6.3c-1.4-1.9-3-3.6-5-4.8c-0.2-0.2-0.4-0.2-0.7-0.2
	s-0.5,0.1-0.8,0.3c-1.2,1-2.5,1.7-4,2.2s-3,0.8-4.5,0.8h-1.7c-0.3,0-0.7,0.3-0.7,0.7v1.6c0,4.1,0.7,8,2.2,11.7
	c1.4,3.6,3.4,6.9,5.9,9.9c2.3,2.7,5,5,8.1,6.8c3,1.8,6.3,3.1,9.7,3.9h0.1c0.1,0,0.2,0,0.2-0.1c0,0,0.1-0.1,0.1-0.3
	c-0.1-0.3-0.2-0.7-0.3-1.1C147.3,232.5,146,231.1,144.3,230.4"/>
<path class="st1" d="M123.4,232.4c0.1-0.3,0.3-0.5,0.3-0.9c0.1-0.1,0-0.3-0.1-0.3l-1.3-1c-0.2-0.1-0.3-0.1-0.4,0.1
	c-0.1,0.3-0.3,0.7-0.3,1c-0.1,0.2,0,0.3,0.1,0.3c0.4,0.3,0.9,0.5,1.4,0.9C123.2,232.7,123.4,232.6,123.4,232.4"/>
<path class="st1" d="M123.3,182.5c-2.7,0-4.9,2.2-4.9,4.9s2.2,4.9,4.9,4.9c2.7,0,4.9-2.2,4.9-4.9S126,182.5,123.3,182.5
	 M123.2,190.7c-1.7,0-3.2-1.5-3.2-3.2c0-1.5,0.9-2.7,2.2-3.2c0.3-0.1,0.4,0.2,0.3,0.4c-0.4,0.4-0.6,1.1-0.6,1.7
	c0.1,1.3,1.1,2.3,2.4,2.4c0.7,0,1.3-0.2,1.7-0.6c0.2-0.2,0.5,0,0.4,0.3C125.9,189.8,124.7,190.7,123.2,190.7"/>
<path class="st1" d="M105.7,182.5c-2.7,0-4.9,2.2-4.9,4.9s2.2,4.9,4.9,4.9c2.7,0,4.9-2.2,4.9-4.9S108.4,182.5,105.7,182.5
	 M105.6,190.7c-1.7,0-3.2-1.5-3.2-3.2c0-1.5,0.9-2.7,2.2-3.2c0.3-0.1,0.4,0.2,0.3,0.4c-0.4,0.4-0.6,1.1-0.6,1.7
	c0.1,1.3,1.1,2.3,2.4,2.4c0.7,0,1.3-0.2,1.7-0.6c0.2-0.2,0.5,0,0.4,0.3C108.3,189.8,107.1,190.7,105.6,190.7"/>
<path class="st1" d="M47.5,43.6c-2,0-3.6,1.6-3.6,3.6c0,0.5,0.1,1,0.3,1.6l2.8,5.9c0.2,0.3,0.6,0.3,0.8,0l2.8-5.9
	c0.3-0.5,0.3-1,0.3-1.6C51.1,45.1,49.4,43.6,47.5,43.6"/>
<path class="st1" d="M32.9,56.4c0-1.3-0.6-2.4-1.7-3c-0.1-0.1-0.3-0.2-0.3-0.2c-0.4-0.3-1,0-1,0.5c-0.1,1-0.2,2.2-0.2,3.2
	c0,5.1,1.4,10.1,4.1,14.4c0.7,1.1,1.6,2.3,2.4,3.3c0.2,0.2,0.4,0.3,0.6,0.2c0.3-0.1,0.3-0.4,0.3-0.7c-2.7-5-4.1-10.7-4.1-16.5
	C32.8,57.2,32.9,56.9,32.9,56.4"/>
<path class="st1" d="M42.7,96.8"/>
<path class="st1" d="M50,91.9c0.3-0.6,0.7-1.1,1-1.7c0.3-0.7,0.2-1.6-0.5-1.9c-0.3-0.2-0.5-0.3-0.8-0.5s-0.5-0.1-0.6,0.2
	c-0.7,1.7-1.5,3.2-2.4,4.7c-0.8,1.3-2.3,2.1-3.8,2.1h-1.3c-0.8,0-1.4,0.4-1.7,1.1l-0.2,0.5c-0.1,0.3,0.1,0.6,0.4,0.6h0.8
	c0.2,0,0.3-0.1,0.4-0.3c0.3-0.8,1.2-1.2,2-0.9c0.2,0.1,0.2,0.3,0.2,0.3l-0.1,0.3c-0.1,0.3,0.1,0.6,0.4,0.6h2.3
	c0.2,0,0.3-0.1,0.4-0.3l0.3-0.6l0.3-0.8c0.3-0.8,0.9-1.4,1.6-1.8C49.1,92.9,49.6,92.4,50,91.9"/>
<path class="st1" d="M51.4,96.8L51.4,96.8C51.5,96.8,51.4,96.8,51.4,96.8"/>
<path class="st1" d="M58.7,87.1c-0.3-0.2-0.5-0.1-0.6,0.2c-0.8,1.8-1.7,3.6-2.7,5.2c-0.9,1.3-2.3,2.1-3.8,2.1h-1.3
	c-0.8,0-1.4,0.4-1.7,1.1l-0.2,0.5c-0.1,0.3,0.1,0.6,0.4,0.6h0.7c0.2,0,0.3-0.1,0.4-0.3c0.3-0.8,1.2-1.2,2-0.9
	c0.2,0.1,0.2,0.3,0.2,0.3L52,96.2c-0.1,0.3,0.1,0.6,0.4,0.6h2.7c0.1,0,0.2,0,0.3-0.1c0.2-0.1,0.4-0.2,0.7-0.3l0.4-0.3
	c0.3-0.2,0.7-0.2,1,0.1c0.3,0.2,0.5,0.3,0.8,0.4s0.6,0.2,0.9,0.2h0.6c0.1,0,0.1,0,0.2-0.1c0,0,0.1-0.1,0-0.2l-0.3-1.1
	c-0.2-0.5-0.6-0.9-1.1-0.9h-1c-0.3,0-0.5-0.4-0.3-0.7l0.5-0.8c0.6-0.8,1.1-1.7,1.7-2.6c0.2-0.3,0.4-0.7,0.6-1
	c0.3-0.7,0.1-1.5-0.5-1.9C59.3,87.5,59,87.3,58.7,87.1"/>
<path class="st1" d="M60.9,36.5c0,0.1,0,0.2,0.1,0.2c0.6,0.5,1,1.1,1.4,1.8c0.3,0.7,1,1.3,1.9,1.5c1.5,0.3,2.8,1,3.8,1.9
	c0.1,0,0.1,0.1,0.2,0.1c0.2,0,0.3-0.1,0.3-0.3v-0.1c0-2.3-0.7-4.6-2-6.5c-0.3-0.3-0.6-0.5-1-0.6h-0.3c-1.5,0-3,0.6-4.3,1.7
	C60.9,36.4,60.9,36.5,60.9,36.5"/>
<path class="st1" d="M63.3,42.1c-0.2,0-0.3,0.1-0.3,0.3c-0.1,1-0.3,1.9-0.9,2.8c-0.3,0.7-0.4,1.5-0.2,2.1c0.5,1.4,0.7,2.7,0.6,4.1
	c0,0.1,0,0.2,0.1,0.2c0.1,0.1,0.1,0.1,0.2,0.1H63c1.8-1.1,3.3-2.7,4.3-4.6c0.3-0.5,0.3-1.2,0.3-1.8c-0.1-0.6-0.4-1.1-1-1.6
	C65.8,42.9,64.6,42.4,63.3,42.1"/>
<path class="st1" d="M52.7,35.9h0.2c1-0.6,2.2-0.9,3.4-0.9c0.5,0,1,0.1,1.4,0.2c0.2,0,0.3,0.1,0.5,0.1c0.6,0,1.1-0.2,1.6-0.5
	c1.1-0.9,2.3-1.6,3.7-1.8c0.1,0,0.2-0.1,0.2-0.2s0-0.2-0.1-0.3c-1-0.7-2.1-1.2-3.3-1.6c-0.4-0.1-0.9-0.2-1.3-0.2s-0.8,0-1.3,0.1
	c-1.1,0.2-2.2,0.8-3,1.6c-0.9,0.9-1.6,1.9-2.2,3.2c-0.1,0.1,0,0.2,0,0.3C52.6,35.8,52.6,35.9,52.7,35.9"/>
<path class="st1" d="M44,33.6c0.6,1.1,1,2.3,1.3,3.7c0.3,1.3,0.3,2.8,0.3,4.2c0,0.1,0,0.2,0.1,0.2c0.1,0.1,0.1,0.1,0.2,0.1H46
	c0.5-0.2,1-0.2,1.5-0.2s1,0.1,1.5,0.2l0,0c0.1,0,0.2,0,0.2-0.1c0.1-0.1,0.1-0.1,0.1-0.2c-0.1-1.4,0-2.9,0.3-4.2s0.7-2.6,1.3-3.7
	c0.3-0.5,0.6-1,1-1.6c0.1-0.1,0.1-0.3,0-0.3c-0.1-0.1-0.2-0.2-0.3-0.2h-0.2c-1.2,0.7-2.3,1.6-3.2,2.6c-0.2,0.3-0.5,0.3-0.9,0.3
	c-0.3,0-0.6-0.2-0.9-0.3c-1-1-2-2-3.2-2.6H43c-0.1,0-0.2,0.1-0.3,0.2c0,0.1-0.1,0.2,0,0.3C43.4,32.6,43.8,33.1,44,33.6"/>
<path class="st1" d="M35.2,34.5c0.4,0.3,1,0.5,1.6,0.5c0.2,0,0.3,0,0.5-0.1c0.4-0.1,1-0.2,1.4-0.2c1.2,0,2.3,0.3,3.4,0.9h0.2
	c0.1,0,0.2-0.1,0.3-0.1c0,0,0.1-0.2,0-0.3C42,34,41.3,33,40.3,32.1c-0.9-0.9-1.9-1.4-3-1.6c-0.4-0.1-0.9-0.1-1.3-0.1
	c-0.4,0-0.9,0.1-1.3,0.2c-1.1,0.3-2.3,0.9-3.3,1.6c-0.1,0.1-0.2,0.2-0.1,0.3c0,0.1,0.1,0.2,0.2,0.2C32.8,33,34.1,33.6,35.2,34.5"/>
<path class="st1" d="M32.6,38.6c0.3-0.7,0.8-1.3,1.4-1.8c0.1-0.1,0.1-0.1,0.1-0.2c0-0.1,0-0.2-0.1-0.2c-1.3-1.1-2.8-1.7-4.3-1.7
	h-0.3c-0.4,0-0.8,0.3-1,0.6c-1.3,1.9-2,4.2-2,6.5V42c0,0.2,0.2,0.3,0.3,0.3c0.1,0,0.1,0,0.2-0.1c1-0.9,2.3-1.6,3.8-1.9
	C31.5,39.9,32.2,39.3,32.6,38.6"/>
<path class="st1" d="M32.1,51.6c0.1,0,0.2,0,0.2-0.1c0,0,0.1-0.1,0.1-0.2c-0.1-1.3,0.1-2.7,0.6-4.1c0.3-0.7,0.2-1.5-0.2-2.1
	c-0.5-0.9-0.8-1.7-0.9-2.8c0-0.2-0.1-0.3-0.3-0.3h-0.1c-1.3,0.3-2.3,0.8-3.2,1.5c-0.4,0.3-0.8,1-0.9,1.5c-0.1,0.6-0.1,1.2,0.3,1.7
	c1,1.9,2.4,3.6,4.3,4.6C32,51.6,32,51.6,32.1,51.6"/>
<path class="st1" d="M61.1,80.8L61.1,80.8c-2.7-3.1-4.9-6.7-6.3-10.6c-1.5-4-2.3-8.3-2.3-12.5c0-0.7,0-1.4,0.1-2
	c0-0.1,0-0.1-0.1-0.2c0,0-0.1-0.1-0.2-0.1c-0.3,0-0.6-0.3-0.6-0.6c0-0.9,0.7-1.6,1.6-1.6h3.6c0.6,0,1.1,0,1.7-0.1
	c1-0.2,1.7-0.9,1.7-1.8c0.1-1.1-0.1-2.3-0.5-3.4c0-0.1-0.2-0.2-0.3-0.2h-0.1c-1,0.6-2.2,0.9-3.3,0.9c-1,0-2-0.3-3-0.7H53
	c-0.1,0-0.3,0.1-0.3,0.2c-0.1,0.5-0.3,1-0.4,1.5L49,56.5c-0.3,0.7-1,1.1-1.7,1.1c-0.8,0-1.4-0.4-1.7-1.1l-3.3-6.9
	c-0.3-0.4-0.3-1-0.4-1.5c0-0.2-0.2-0.2-0.3-0.2h-0.1c-1,0.4-1.9,0.7-3,0.7s-2.3-0.3-3.3-0.9h-0.1c-0.1,0-0.2,0.1-0.3,0.2
	c-0.4,1.2-0.6,2.3-0.5,3.4c0.1,1,0.8,1.7,1.7,1.8c0.5,0.1,1.1,0.1,1.7,0.1h3.6c0.9,0,1.6,0.7,1.6,1.6c0,0.3-0.3,0.6-0.6,0.6h-4.7
	c-0.7,0-1.5-0.1-2.2-0.2h-0.1c-0.3,0-0.7,0.3-0.7,0.7c0,0.6-0.1,1.2-0.1,1.7c0,6.3,1.7,12.4,5.1,17.7c1.5,2.3,3.3,4.5,5.3,6.4
	s4.3,3.6,6.8,5h0.1c0.1,0,0.2-0.1,0.3-0.2c0.1-0.3,0.2-0.4,0.3-0.7c0.3-0.7,0.3-1.5,0.2-2.3c-0.2-0.8-0.5-1.5-1-2.1
	c-1.6-1.7-3-3.6-4.2-5.5c-0.1-0.2-0.1-0.3-0.1-0.5s0.2-0.3,0.3-0.4c0.4,0,0.7,0,1,0c0.5,0,1,0.3,1.3,0.7c1.6,2.4,3.4,4.6,5.6,6.5
	c0.9,0.8,1.8,1.6,2.9,2.3c0.8,0.6,1.7,1.2,2.6,1.7h0.2c0.1,0,0.2-0.1,0.3-0.2c0.2-0.4,0.3-0.8,0.4-1.2c0.3-0.7,0.3-1.5,0.2-2.2
	C61.9,82,61.6,81.3,61.1,80.8"/>
<path class="st1" d="M64.7,84.4c-0.1-0.1-0.1-0.1-0.2-0.1s-0.2,0.1-0.3,0.2c-0.5,1.7-1.1,3.3-1.9,4.9v0.2c0,0.1,0.1,0.1,0.2,0.2
	c2.3,1,4.5,1.9,6.8,2.6h0.2c0.2,0,0.3-0.1,0.4-0.3c0.3-0.5,0.7-1,1-1.7c0.1-0.3,0.3-0.4,0.3-0.7c0.2-0.4,0.1-0.9-0.3-1.1
	C68.8,87.6,66.6,86.1,64.7,84.4"/>
<path class="st1" d="M77.3,84.8c-1.7-0.6-3.2-1.4-4.7-2.3c-2.5-1.6-4.8-3.5-6.8-5.7c-2.5-2.9-4.3-6.2-5.6-9.8c-0.1-0.2,0-0.3,0-0.4
	c0.1-0.2,0.2-0.3,0.3-0.3c0.2-0.1,0.3-0.1,0.5-0.1c0.7,0,1.3,0.4,1.5,1c1.1,3,2.8,5.7,4.9,8.2c1.8,2.1,3.9,3.9,6.3,5.3
	c1.7,1,3.6,1.9,5.5,2.6h0.1c0.1,0,0.2,0,0.2-0.1c0.1-0.1,0.1-0.2,0.1-0.2c-0.1-0.5-0.2-1-0.3-1.5c-0.3-1.7-1.2-3-2.7-3.8
	c-2.3-1.3-4.3-3-6-5c-2.3-2.8-4.1-6.1-5-9.6c0-0.2,0-0.3,0.1-0.4c0.1-0.2,0.3-0.3,0.3-0.3h0.3c0.7,0,1.4,0.5,1.6,1.1
	c0.4,1.4,1,2.8,1.7,4.2c0.7,1.3,1.6,2.5,2.5,3.6c1.6,1.8,3.5,3.4,5.6,4.6H78c0.1,0,0.2,0,0.2-0.1c0.1-0.1,0.1-0.2,0.1-0.3
	c-0.9-4.4-1.8-8.3-3.1-11.9c-0.8-2.3-1.9-4.4-3.3-6.3c-1.4-1.9-3-3.6-5-4.8c-0.2-0.2-0.4-0.2-0.7-0.2s-0.5,0.1-0.8,0.3
	c-1.2,1-2.5,1.7-4,2.2s-3,0.8-4.5,0.8h-1.6c-0.3,0-0.7,0.3-0.7,0.7v1.6c0,4.1,0.7,8,2.2,11.7c1.4,3.6,3.4,7,5.9,9.9
	c2.3,2.7,5,5,8.1,6.8c3,1.8,6.3,3.1,9.7,3.9h0.1c0.1,0,0.2,0,0.2-0.1c0,0,0.1-0.1,0.1-0.3c-0.1-0.3-0.2-0.7-0.3-1.1
	C80.3,86.9,79,85.5,77.3,84.8"/>
<path class="st1" d="M56.4,86.9c0.1-0.3,0.3-0.5,0.3-0.9c0.1-0.1,0-0.3-0.1-0.3c-0.4-0.3-0.9-0.7-1.3-1c-0.2-0.1-0.3-0.1-0.4,0.1
	c-0.1,0.3-0.3,0.7-0.3,1c-0.1,0.2,0,0.3,0.1,0.3c0.4,0.3,0.9,0.5,1.4,0.9C56.1,87,56.3,86.9,56.4,86.9"/>
<path class="st1" d="M56.2,36.9c-2.7,0-4.9,2.2-4.9,4.9s2.2,4.9,4.9,4.9s4.9-2.2,4.9-4.9C61.1,39.1,58.9,36.9,56.2,36.9 M56.1,45.1
	c-1.7,0-3.2-1.5-3.2-3.2c0-1.5,0.9-2.7,2.2-3.2c0.3-0.1,0.4,0.2,0.3,0.4c-0.4,0.4-0.6,1.1-0.6,1.7c0.1,1.3,1.1,2.3,2.4,2.4
	c0.7,0,1.3-0.2,1.7-0.6c0.2-0.2,0.5,0,0.4,0.3C58.9,44.2,57.6,45.1,56.1,45.1"/>
<path class="st1" d="M38.7,36.9c-2.7,0-4.9,2.2-4.9,4.9s2.2,4.9,4.9,4.9s4.9-2.2,4.9-4.9C43.5,39.1,41.4,36.9,38.7,36.9 M38.7,45.1
	c-1.7,0-3.2-1.5-3.2-3.2c0-1.5,0.9-2.7,2.2-3.2c0.3-0.1,0.4,0.2,0.3,0.4c-0.4,0.4-0.6,1.1-0.6,1.7c0.1,1.3,1.1,2.3,2.4,2.4
	c0.7,0,1.3-0.2,1.7-0.6c0.2-0.2,0.5,0,0.4,0.3C41.4,44.2,40.1,45.1,38.7,45.1"/>
<path class="st1" d="M173.5,43.6c-2,0-3.6,1.6-3.6,3.6c0,0.5,0.1,1,0.3,1.6l2.8,5.9c0.2,0.3,0.6,0.3,0.8,0l2.8-5.9
	c0.3-0.5,0.3-1,0.3-1.6C177.1,45.1,175.4,43.6,173.5,43.6"/>
<path class="st1" d="M158.9,56.4c0-1.3-0.6-2.4-1.7-3c-0.1-0.1-0.3-0.2-0.3-0.2c-0.4-0.3-1,0-1,0.5c-0.1,1-0.2,2.2-0.2,3.2
	c0,5.1,1.4,10.1,4.1,14.4c0.7,1.1,1.6,2.3,2.4,3.3c0.2,0.2,0.4,0.3,0.6,0.2c0.3-0.1,0.3-0.4,0.3-0.7c-2.7-5-4.1-10.7-4.1-16.5v-1.2
	H158.9z"/>
<path class="st1" d="M168.6,96.8"/>
<path class="st1" d="M175.9,91.9c0.3-0.6,0.7-1.1,1-1.7c0.3-0.7,0.2-1.6-0.5-1.9l-0.8-0.5c-0.3-0.2-0.5-0.1-0.6,0.2
	c-0.7,1.7-1.5,3.2-2.4,4.7c-0.8,1.3-2.3,2.1-3.8,2.1h-1.3c-0.8,0-1.4,0.4-1.7,1.1l-0.2,0.5c-0.1,0.3,0.1,0.6,0.4,0.6h0.8
	c0.2,0,0.3-0.1,0.4-0.3c0.3-0.8,1.2-1.2,2-0.9c0.2,0.1,0.2,0.3,0.2,0.3l-0.1,0.3c-0.1,0.3,0.1,0.6,0.4,0.6h2.3
	c0.2,0,0.3-0.1,0.4-0.3l0.3-0.6l0.3-0.8c0.3-0.8,0.9-1.4,1.6-1.8C175.1,92.9,175.6,92.4,175.9,91.9"/>
<path class="st1" d="M177.4,96.8L177.4,96.8C177.5,96.8,177.5,96.8,177.4,96.8"/>
<path class="st1" d="M184.7,87.1c-0.3-0.2-0.5-0.1-0.6,0.2c-0.8,1.8-1.7,3.6-2.7,5.2c-0.9,1.3-2.3,2.1-3.8,2.1h-1.3
	c-0.8,0-1.4,0.4-1.7,1.1l-0.2,0.5c-0.1,0.3,0.1,0.6,0.4,0.6h0.7c0.2,0,0.3-0.1,0.4-0.3c0.3-0.8,1.2-1.2,2-0.9
	c0.2,0.1,0.2,0.3,0.2,0.3l-0.1,0.3c-0.1,0.3,0.1,0.6,0.4,0.6h2.7c0.1,0,0.2,0,0.3-0.1c0.2-0.1,0.4-0.2,0.7-0.3l0.4-0.3
	c0.3-0.2,0.7-0.2,1,0.1c0.3,0.2,0.5,0.3,0.8,0.4s0.6,0.2,0.9,0.2h0.6c0.1,0,0.1,0,0.2-0.1c0,0,0.1-0.1,0-0.2l-0.3-1.1
	c-0.2-0.5-0.6-0.9-1.1-0.9h-1c-0.3,0-0.5-0.4-0.3-0.7l0.5-0.8c0.6-0.8,1.1-1.7,1.7-2.6c0.2-0.3,0.4-0.7,0.6-1
	c0.3-0.7,0.1-1.5-0.5-1.9C185.2,87.5,185,87.3,184.7,87.1"/>
<path class="st1" d="M186.9,36.5c0,0.1,0,0.2,0.1,0.2c0.6,0.5,1,1.1,1.4,1.8c0.3,0.7,1,1.3,1.9,1.5c1.5,0.3,2.8,1,3.8,1.9
	c0.1,0,0.1,0.1,0.2,0.1c0.2,0,0.3-0.1,0.3-0.3v-0.1c0-2.3-0.7-4.6-2-6.5c-0.3-0.3-0.6-0.5-1-0.6h-0.3c-1.5,0-3,0.6-4.3,1.7
	C186.9,36.4,186.9,36.5,186.9,36.5"/>
<path class="st1" d="M189.3,42.1c-0.2,0-0.3,0.1-0.3,0.3c-0.1,1-0.3,1.9-0.9,2.8c-0.3,0.7-0.4,1.5-0.2,2.1c0.5,1.4,0.7,2.7,0.6,4.1
	c0,0.1,0,0.2,0.1,0.2c0.1,0.1,0.1,0.1,0.2,0.1h0.2c1.8-1.1,3.3-2.7,4.3-4.6c0.3-0.5,0.3-1.2,0.3-1.8c-0.1-0.6-0.4-1.1-1-1.6
	C191.8,42.9,190.6,42.4,189.3,42.1C189.4,42.1,189.3,42.1,189.3,42.1"/>
<path class="st1" d="M178.7,35.9h0.2c1-0.6,2.2-0.9,3.4-0.9c0.5,0,1,0.1,1.4,0.2c0.2,0,0.3,0.1,0.5,0.1c0.6,0,1.1-0.2,1.6-0.5
	c1.1-0.9,2.3-1.6,3.6-1.8c0.1,0,0.2-0.1,0.2-0.2s0-0.2-0.1-0.3c-1-0.7-2.1-1.2-3.3-1.6c-0.4-0.1-0.9-0.2-1.3-0.2s-0.8,0-1.3,0.1
	c-1.1,0.2-2.2,0.8-3,1.6c-0.9,0.9-1.6,1.9-2.2,3.2c-0.1,0.1,0,0.2,0,0.3C178.5,35.8,178.6,35.9,178.7,35.9"/>
<path class="st1" d="M170,33.6c0.6,1.1,1,2.3,1.3,3.7c0.3,1.3,0.3,2.8,0.3,4.2c0,0.1,0,0.2,0.1,0.2c0.1,0.1,0.1,0.1,0.2,0.1h0.1
	c0.5-0.2,1-0.2,1.5-0.2s1,0.1,1.5,0.2h0.1c0.1,0,0.2,0,0.2-0.1c0.1-0.1,0.1-0.1,0.1-0.2c-0.1-1.4,0-2.9,0.3-4.2s0.7-2.6,1.3-3.7
	c0.3-0.5,0.6-1,1-1.6c0.1-0.1,0.1-0.3,0-0.3c-0.1-0.1-0.2-0.2-0.3-0.2h-0.2c-1.2,0.7-2.3,1.6-3.2,2.6c-0.2,0.3-0.5,0.3-0.9,0.3
	c-0.3,0-0.6-0.2-0.9-0.3c-1-1-2-2-3.2-2.6H169c-0.1,0-0.2,0.1-0.3,0.2c0,0.1-0.1,0.2,0,0.3C169.4,32.6,169.8,33.1,170,33.6"/>
<path class="st1" d="M161.2,34.5c0.4,0.3,1,0.5,1.6,0.5c0.2,0,0.3,0,0.5-0.1c0.4-0.1,1-0.2,1.4-0.2c1.2,0,2.3,0.3,3.4,0.9h0.2
	c0.1,0,0.2-0.1,0.3-0.1c0,0,0.1-0.2,0-0.3c-0.5-1.3-1.2-2.3-2.2-3.2c-0.9-0.9-1.9-1.4-3-1.6c-0.4-0.1-0.9-0.1-1.3-0.1
	c-0.4,0-0.9,0.1-1.3,0.2c-1.1,0.3-2.3,0.9-3.3,1.6c-0.1,0.1-0.2,0.2-0.1,0.3c0,0.1,0.1,0.2,0.2,0.2C158.8,33,160,33.6,161.2,34.5"/>
<path class="st1" d="M158.6,38.6c0.3-0.7,0.8-1.3,1.4-1.8c0.1-0.1,0.1-0.1,0.1-0.2c0-0.1,0-0.2-0.1-0.2c-1.3-1.1-2.8-1.7-4.3-1.7
	h-0.3c-0.4,0-0.8,0.3-1,0.6c-1.3,1.9-2,4.2-2,6.5V42c0,0.2,0.2,0.3,0.3,0.3s0.1,0,0.2-0.1c1-0.9,2.3-1.6,3.8-1.9
	C157.5,39.9,158.2,39.3,158.6,38.6"/>
<path class="st1" d="M158,51.6c0.1,0,0.2,0,0.2-0.1c0,0,0.1-0.1,0.1-0.2c-0.1-1.3,0.1-2.7,0.6-4.1c0.3-0.7,0.2-1.5-0.2-2.1
	c-0.5-0.9-0.8-1.7-0.9-2.8c0-0.2-0.1-0.3-0.3-0.3h-0.1c-1.3,0.3-2.3,0.8-3.2,1.5c-0.4,0.3-0.8,1-0.9,1.5c-0.1,0.6-0.1,1.2,0.3,1.7
	c1,1.9,2.4,3.6,4.3,4.6C158,51.6,158,51.6,158,51.6"/>
<path class="st1" d="M187.1,80.8L187.1,80.8c-2.7-3.1-4.9-6.7-6.3-10.6c-1.5-4-2.3-8.3-2.3-12.5c0-0.7,0-1.4,0.1-2
	c0-0.1,0-0.1-0.1-0.2c0,0-0.1-0.1-0.2-0.1c-0.3,0-0.6-0.3-0.6-0.6c0-0.9,0.7-1.6,1.6-1.6h3.6c0.6,0,1.1,0,1.7-0.1
	c1-0.2,1.7-0.9,1.7-1.8c0.1-1.1-0.1-2.3-0.5-3.4c0-0.1-0.2-0.2-0.3-0.2h-0.1c-1,0.6-2.2,0.9-3.3,0.9c-1,0-2-0.3-3-0.7H179
	c-0.1,0-0.3,0.1-0.3,0.2c-0.1,0.5-0.3,1-0.4,1.5l-3.3,6.9c-0.3,0.7-1,1.1-1.7,1.1c-0.8,0-1.4-0.4-1.7-1.1l-3.3-6.9
	c-0.3-0.4-0.3-1-0.4-1.5c0-0.2-0.2-0.2-0.3-0.2h-0.1c-1,0.4-1.9,0.7-3,0.7s-2.3-0.3-3.3-0.9h-0.1c-0.1,0-0.2,0.1-0.3,0.2
	c-0.4,1.2-0.6,2.3-0.5,3.4c0.1,1,0.8,1.7,1.7,1.8c0.5,0.1,1.1,0.1,1.7,0.1h3.6c0.9,0,1.6,0.7,1.6,1.6c0,0.3-0.3,0.6-0.6,0.6h-4.7
	c-0.7,0-1.5-0.1-2.2-0.2h-0.1c-0.3,0-0.7,0.3-0.7,0.7c0,0.6-0.1,1.2-0.1,1.7c0,6.3,1.7,12.4,5.1,17.7c1.5,2.3,3.3,4.5,5.3,6.4
	s4.3,3.6,6.8,5h0.1c0.1,0,0.2-0.1,0.3-0.2c0.1-0.3,0.2-0.4,0.3-0.7c0.3-0.7,0.3-1.5,0.2-2.3c-0.2-0.8-0.5-1.5-1-2.1
	c-1.6-1.7-3-3.6-4.2-5.5c-0.1-0.2-0.1-0.3-0.1-0.5s0.2-0.3,0.3-0.4c0.3-0.2,0.5-0.2,0.8-0.2c0.5,0,1,0.3,1.3,0.7
	c1.6,2.4,3.4,4.6,5.6,6.5c0.9,0.8,1.8,1.6,2.9,2.3c0.8,0.6,1.7,1.2,2.6,1.7h0.2c0.1,0,0.2-0.1,0.3-0.2c0.2-0.4,0.3-0.8,0.4-1.2
	c0.3-0.7,0.3-1.5,0.2-2.2S187.6,81.3,187.1,80.8"/>
<path class="st1" d="M190.7,84.4c-0.1-0.1-0.1-0.1-0.2-0.1s-0.2,0.1-0.3,0.2c-0.5,1.7-1.1,3.3-1.9,4.9v0.2c0,0.1,0.1,0.1,0.2,0.2
	c2.3,1,4.5,1.9,6.8,2.6h0.2c0.2,0,0.3-0.1,0.4-0.3c0.3-0.5,0.7-1,1-1.7c0.1-0.3,0.3-0.4,0.3-0.7c0.2-0.4,0.1-0.9-0.3-1.1
	C194.8,87.6,192.7,86.1,190.7,84.4"/>
<path class="st1" d="M206.6,88.7c-0.4-1.7-1.7-3.2-3.3-3.8s-3.2-1.4-4.7-2.3c-2.5-1.6-4.8-3.5-6.8-5.7c-2.5-2.9-4.3-6.2-5.6-9.8
	c-0.1-0.2,0-0.3,0-0.4c0.1-0.2,0.2-0.3,0.3-0.3c0.2-0.1,0.3-0.1,0.5-0.1c0.7,0,1.3,0.4,1.5,1c1.1,3,2.8,5.7,4.9,8.2
	c1.8,2.1,3.9,3.9,6.3,5.3c1.7,1,3.6,1.9,5.5,2.6h0.1c0.1,0,0.2,0,0.2-0.1c0.1-0.1,0.1-0.2,0.1-0.2c-0.1-0.5-0.2-1-0.3-1.5
	c-0.3-1.7-1.2-3-2.7-3.8c-2.3-1.3-4.3-3-6-5c-2.3-2.8-4.1-6.1-5-9.6c0-0.2,0-0.3,0.1-0.4c0.1-0.2,0.3-0.3,0.3-0.3h0.3
	c0.7,0,1.4,0.5,1.6,1.1c0.4,1.4,1,2.8,1.7,4.2c0.7,1.3,1.6,2.5,2.5,3.6c1.6,1.8,3.5,3.4,5.6,4.6h0.2c0.1,0,0.2,0,0.2-0.1
	c0.1-0.1,0.1-0.2,0.1-0.3c-0.9-4.4-1.8-8.3-3.1-11.9c-0.8-2.3-1.9-4.4-3.3-6.3c-1.4-1.9-3-3.6-5-4.8c-0.2-0.2-0.4-0.2-0.7-0.2
	s-0.5,0.1-0.8,0.3c-1.2,1-2.5,1.7-4,2.2s-3,0.8-4.5,0.8h-1.7c-0.3,0-0.7,0.3-0.7,0.7V58c0,4.1,0.7,8,2.2,11.7c1.4,3.6,3.4,7,5.9,9.9
	c2.3,2.7,5,5,8.1,6.8c3,1.8,6.3,3.1,9.7,3.9h0.1c0.1,0,0.2,0,0.2-0.1c0,0,0.1-0.1,0.1-0.3C206.8,89.4,206.7,89,206.6,88.7"/>
<path class="st1" d="M182.4,86.9c0.1-0.3,0.3-0.5,0.3-0.9c0.1-0.1,0-0.3-0.1-0.3l-1.3-1c-0.2-0.1-0.3-0.1-0.4,0.1
	c-0.1,0.3-0.3,0.7-0.3,1c-0.1,0.2,0,0.3,0.1,0.3c0.4,0.3,0.9,0.5,1.4,0.9C182.2,87,182.3,86.9,182.4,86.9"/>
<path class="st1" d="M182.3,36.9c-2.7,0-4.9,2.2-4.9,4.9s2.2,4.9,4.9,4.9s4.9-2.2,4.9-4.9C187.1,39.1,184.9,36.9,182.3,36.9
	 M182.2,45.1c-1.7,0-3.2-1.5-3.2-3.2c0-1.5,0.9-2.7,2.2-3.2c0.3-0.1,0.4,0.2,0.3,0.4c-0.4,0.4-0.6,1.1-0.6,1.7
	c0.1,1.3,1.1,2.3,2.4,2.4c0.7,0,1.3-0.2,1.7-0.6c0.2-0.2,0.5,0,0.4,0.3C184.9,44.2,183.6,45.1,182.2,45.1"/>
<path class="st1" d="M164.7,36.9c-2.7,0-4.9,2.2-4.9,4.9s2.2,4.9,4.9,4.9s4.9-2.2,4.9-4.9C169.6,39.1,167.4,36.9,164.7,36.9
	 M164.6,45.1c-1.7,0-3.2-1.5-3.2-3.2c0-1.5,0.9-2.7,2.2-3.2c0.3-0.1,0.4,0.2,0.3,0.4c-0.4,0.4-0.6,1.1-0.6,1.7
	c0.1,1.3,1.1,2.3,2.4,2.4c0.7,0,1.3-0.2,1.7-0.6c0.2-0.2,0.5,0,0.4,0.3C167.3,44.2,166.1,45.1,164.6,45.1"/>
<path class="st1" d="M116.6,110.2l-84.5,84.5c2.5,4.6,5.2,9.1,8.3,13.6c1,1.4,2,2.8,3,4.2l73.2-73.2l73.2,73.2c1-1.4,2-2.8,3-4.2
	c3-4.3,5.7-8.9,8.3-13.6L116.6,110.2z"/>
<path class="st1" d="M116.6,66.8l-97,96.9c2,7.3,4.5,14.4,7.6,21.3l89.3-89.2l89.2,89.2c3.1-7,5.6-14.1,7.6-21.3L116.6,66.8z"/>
<path class="st0" d="M501.8,177.8c-15.1-14.1-23.3-34.1-22.4-54.8c0.2-18.9,7.6-36.9,20.7-50.5c11.1-11.1,27.9-19.8,56.4-19.8
	c9,0,18,0.7,26.8,2.2c6.2,1.3,12.5,2.2,18.9,2.8c2,0,2.4,0.9,2.4,2.1c0,1.2-0.6,3.7-1,10.4s-0.3,16.3-0.5,19.1
	c-0.2,2.8-0.6,3.9-1.7,3.9c-1.1,0-1.5-1.3-1.5-3.9c0.2-7.1-2.7-14-7.8-18.9c-10.9-7.4-23.9-11.1-37-10.5c-24.6,0-36.1,7.2-42.6,13.5
	c-13.7,13-16.6,29.4-16.6,48.6c-0.5,36.9,29,67.3,65.9,67.8c0.3,0,0.6,0,0.9,0c13.9,0,24.8-1.7,32.2-9.3c3.5-4.5,5.9-9.9,6.9-15.6
	c0.4-2,0.7-2.8,1.8-2.8s1.3,1.3,1.3,2.8c-0.9,8-2.2,15.9-4.1,23.7c-1.1,3.5-1.4,3.9-4.8,5.4c-10.8,3.2-22.1,4.6-33.3,4.3
	C534.9,197.8,516.1,190.9,501.8,177.8"/>
<path class="st0" d="M638.1,109c0-28.8,0-34.1-0.3-40.3c-0.3-6.2-1.8-9.2-7.9-10.5c-2.1-0.4-4.2-0.5-6.3-0.5
	c-0.7,0.1-1.3-0.4-1.4-1.2c0-1.1,0.9-1.4,2.9-1.4c8.4,0,20,0.5,20.9,0.5h42.4c2.7-0.1,5.4-0.4,8-0.9c0.9,0,1.6-0.9,2.5-0.9
	s0.7,0.7,0.7,1.7c0,0.9-0.9,3.5-1.4,8.7c0,1.8-0.6,10-0.9,12.2c0,0.9-0.6,2-1.3,2s-1.5-0.9-1.5-2.4c0-2.3-0.3-4.5-1.1-6.7
	c-1.3-3-3.2-5.2-13.1-6.3c-3.2-0.4-23-0.6-25.3-0.6c-0.7,0-1.2,0.6-1.2,1.8v51.1c0,1.3,0,1.8,1.2,1.8c2.4,0,25.2,0,29.4-0.3
	c4.3-0.3,7-0.7,8.7-2.6c1.7-1.8,2-2.4,2.8-2.4c0.7,0,0.9,0.4,0.9,1.5s-0.9,4.3-1.5,10.4c-0.3,3.7-0.7,10.5-0.7,11.5s0,3.6-1.3,3.6
	s-1.3-0.7-1.3-1.7c0.1-2.1-0.1-4.1-0.7-6.1c-0.7-2.6-2.4-5.8-9.7-6.5c-5-0.6-23-0.9-26.4-0.9c-0.7-0.1-1.3,0.4-1.3,1.1
	c0,0.1,0,0.2,0,0.2v16.2v31.7c0.6,12.8,3.3,15.2,21.5,15.2c6,0.3,12-0.4,17.8-2.1c4.8-2,7-5.8,8.3-13.3c0.4-2.1,0.7-2.8,1.7-2.8
	c0.9,0,1.1,1.4,1.1,2.8c0,1.3-1.4,14.1-2.4,18c-1.3,4.8-2.8,4.8-10,4.8c-27.9,0-40.3-1.1-45.7-1.1c-0.9,0-12.6,0.5-18.1,0.5
	c-2,0-2.9-0.3-2.9-1.4c0-1.1,0.3-1.2,1.5-1.2c1.9,0,3.9-0.3,5.8-0.7c3.7-0.7,4.6-4.8,5.4-10.2c0.9-7.8,0.9-22.4,0.9-40.3L638.1,109z
	"/>
<path class="st0" d="M427.7,191.5c-2.2,0-4.5-0.4-6.6-1.2c-6.2-2.6-11.6-6.5-16.1-11.5c-10.7-11.5-23-27.9-38.5-47.3
	C383.2,116,389,102.6,389,88.6c-0.2-9.9-4.9-19.2-12.8-25.2c-10.2-6.2-22-9-33.9-8.1c-5.8,0-19.8,0.5-21.9,0.5
	c-0.9,0-12.6-0.5-20.9-0.5c-2,0-2.9,0.3-2.9,1.4s0.7,1.2,1.5,1.2c2.1,0,4.2,0.2,6.3,0.5c6.1,1.3,7.6,4.3,7.9,10.5
	c0.3,6.3,0.3,11.1,0.3,40.3v32.5c0,17.8,0,32.4-0.9,40.3c-0.7,5.4-1.7,9.4-5.4,10.2c-1.9,0.4-3.8,0.6-5.8,0.7
	c-1.1,0-1.5,0.6-1.5,1.2c0,0.6,0.9,1.4,3,1.4c5.8,0,17.3-0.5,17.3-0.5s12.6,0.5,23,0.5c2,0,2.9-0.5,2.9-1.4s-0.3-1.2-1.4-1.2
	s-5.8-0.3-8.4-0.7c-5.8-0.7-6.7-4.8-7.2-10.2c-0.9-7.8-0.9-22.4-0.9-40.3v-4.4c0-0.9,0.3-1.5,1.3-1.5l22.8,0.4
	c0.9,0,1.8,0.4,2.4,1.1c3.7,4.8,12.4,17.3,20.2,27.4c10.5,13.9,17.3,23,24.9,27.2c6.2,2.9,13,4.2,19.8,3.5h5.8
	c5.8,0,17.3-0.5,18.1-0.5c0.9,0,12.6,0.5,22.8,0.5c2,0,2.9-0.5,2.9-1.4s-0.3-1.2-1.4-1.2s-5.8-0.3-8.4-0.7
	c-5.8-0.7-6.7-4.8-7.2-10.2c-0.9-7.8-0.9-22.4-0.9-40.3V109c0-28.8,0-34.1,0.3-40.3c0.3-6.2,1.8-9.6,6.9-10.5
	c1.6-0.4,3.2-0.5,4.9-0.5c0.7,0,1.2-0.5,1.2-1.2c0,0,0,0,0-0.1c0-1-1-1.3-2.9-1.3c-5.8,0-17.3,0.5-18.1,0.5
	c-0.9,0-12.6-0.5-18.7-0.5c-2,0-2.9,0.3-2.9,1.4c0,1.1,0.7,1.2,1.4,1.2c1.9,0,3.9,0.2,5.8,0.7c4.1,1,5.8,4.1,6.3,10.4
	s0.4,11.1,0.4,40.3v32.5c0,17.8,0,32.4-0.9,40.3c-0.2,2.4-0.8,4.9-1.7,7.1c-0.8,1.6-2.4,2.6-4.2,2.6L427.7,191.5z M361.9,126.7
	c-4.2,2.6-9,3.8-13.9,3.5c-6.6,0.4-13.2-0.5-19.5-2.6c-0.8-0.5-1.3-1.3-1.3-2.2V64.5c-0.1-1,0.5-1.9,1.4-2.2
	c4.1-0.9,8.3-1.2,12.4-1.2c19.8,0,32,13.9,32,37C373.2,112.3,368.4,122.3,361.9,126.7"/>
</svg>
